<?xml version="1.0" encoding="UTF-8" standalone="no"?>
<!DOCTYPE svg PUBLIC "-//W3C//DTD SVG 1.1//EN"
 "http://www.w3.org/Graphics/SVG/1.1/DTD/svg11.dtd">
<!-- Generated by graphviz version 2.47.0 (20210316.0004)
 -->
<!-- Title: dependencies Pages: 1 -->
<svg width="992pt" height="211pt"
 viewBox="0.00 0.00 992.00 211.00" xmlns="http://www.w3.org/2000/svg" xmlns:xlink="http://www.w3.org/1999/xlink">
<g id="graph0" class="graph" transform="scale(1 1) rotate(0) translate(4 207)">
<title>dependencies</title>
<polygon fill="white" stroke="transparent" points="-4,4 -4,-207 988,-207 988,4 -4,4"/>
<text text-anchor="start" x="471.01" y="-42.4" font-family="sans-serif" font-weight="bold" font-size="14.00">Legend</text>
<polygon fill="#ffffb3" stroke="transparent" points="258,-10 258,-30 278,-30 278,-10 258,-10"/>
<text text-anchor="start" x="281.63" y="-15.4" font-family="sans-serif" font-size="14.00"> &#160;Declarations</text>
<polygon fill="#8dd3c7" stroke="transparent" points="371,-10 371,-30 391,-30 391,-10 371,-10"/>
<text text-anchor="start" x="394.73" y="-15.4" font-family="sans-serif" font-size="14.00"> &#160;Module</text>
<polygon fill="#80b1d3" stroke="transparent" points="457,-10 457,-30 477,-30 477,-10 457,-10"/>
<text text-anchor="start" x="480.78" y="-15.4" font-family="sans-serif" font-size="14.00"> &#160;Bootstrap</text>
<polygon fill="#fdb462" stroke="transparent" points="554,-10 554,-30 574,-30 574,-10 554,-10"/>
<text text-anchor="start" x="577.67" y="-15.4" font-family="sans-serif" font-size="14.00"> &#160;Providers</text>
<polygon fill="#fb8072" stroke="transparent" points="650,-10 650,-30 670,-30 670,-10 650,-10"/>
<text text-anchor="start" x="673.73" y="-15.4" font-family="sans-serif" font-size="14.00"> &#160;Exports</text>
<g id="clust1" class="cluster">
<title>cluster_LoginModule</title>
<polygon fill="none" stroke="black" stroke-dasharray="1,5" points="8,-70 8,-195 976,-195 976,-70 8,-70"/>
</g>
<g id="clust2" class="cluster">
<title>cluster_LoginModule_declarations</title>
<polygon fill="none" stroke="black" points="314,-78 314,-130 968,-130 968,-78 314,-78"/>
</g>
<g id="clust7" class="cluster">
<title>cluster_LoginModule_imports</title>
<polygon fill="none" stroke="black" points="16,-78 16,-130 306,-130 306,-78 16,-78"/>
</g>
<!-- PageForgotComponent -->
<g id="node1" class="node">
<title>PageForgotComponent</title>
<polygon fill="#ffffb3" stroke="black" points="959.88,-122 814.12,-122 814.12,-86 959.88,-86 959.88,-122"/>
<text text-anchor="middle" x="887" y="-99.8" font-family="Times,serif" font-size="14.00">PageForgotComponent</text>
</g>
<!-- LoginModule -->
<g id="node5" class="node">
<title>LoginModule</title>
<polygon fill="#8dd3c7" stroke="black" points="527.49,-187 524.49,-191 503.49,-191 500.49,-187 434.51,-187 434.51,-151 527.49,-151 527.49,-187"/>
<text text-anchor="middle" x="481" y="-164.8" font-family="Times,serif" font-size="14.00">LoginModule</text>
</g>
<!-- PageForgotComponent&#45;&gt;LoginModule -->
<g id="edge1" class="edge">
<title>PageForgotComponent&#45;&gt;LoginModule</title>
<path fill="none" stroke="black" d="M887,-122.28C887,-143.32 887,-175 887,-175 887,-175 537.57,-175 537.57,-175"/>
<polygon fill="black" stroke="black" points="537.57,-171.5 527.57,-175 537.57,-178.5 537.57,-171.5"/>
</g>
<!-- PageResetComponent -->
<g id="node2" class="node">
<title>PageResetComponent</title>
<polygon fill="#ffffb3" stroke="black" points="795.65,-122 656.35,-122 656.35,-86 795.65,-86 795.65,-122"/>
<text text-anchor="middle" x="726" y="-99.8" font-family="Times,serif" font-size="14.00">PageResetComponent</text>
</g>
<!-- PageResetComponent&#45;&gt;LoginModule -->
<g id="edge2" class="edge">
<title>PageResetComponent&#45;&gt;LoginModule</title>
<path fill="none" stroke="black" d="M726,-122.02C726,-139.37 726,-163 726,-163 726,-163 537.66,-163 537.66,-163"/>
<polygon fill="black" stroke="black" points="537.66,-159.5 527.66,-163 537.66,-166.5 537.66,-159.5"/>
</g>
<!-- PageSignInComponent -->
<g id="node3" class="node">
<title>PageSignInComponent</title>
<polygon fill="#ffffb3" stroke="black" points="637.88,-122 492.12,-122 492.12,-86 637.88,-86 637.88,-122"/>
<text text-anchor="middle" x="565" y="-99.8" font-family="Times,serif" font-size="14.00">PageSignInComponent</text>
</g>
<!-- PageSignInComponent&#45;&gt;LoginModule -->
<g id="edge3" class="edge">
<title>PageSignInComponent&#45;&gt;LoginModule</title>
<path fill="none" stroke="black" d="M509.78,-122.11C509.78,-122.11 509.78,-140.99 509.78,-140.99"/>
<polygon fill="black" stroke="black" points="506.28,-140.99 509.78,-150.99 513.28,-140.99 506.28,-140.99"/>
</g>
<!-- PageSignUpComponent -->
<g id="node4" class="node">
<title>PageSignUpComponent</title>
<polygon fill="#ffffb3" stroke="black" points="473.82,-122 322.18,-122 322.18,-86 473.82,-86 473.82,-122"/>
<text text-anchor="middle" x="398" y="-99.8" font-family="Times,serif" font-size="14.00">PageSignUpComponent</text>
</g>
<!-- PageSignUpComponent&#45;&gt;LoginModule -->
<g id="edge4" class="edge">
<title>PageSignUpComponent&#45;&gt;LoginModule</title>
<path fill="none" stroke="black" d="M454.08,-122.11C454.08,-122.11 454.08,-140.99 454.08,-140.99"/>
<polygon fill="black" stroke="black" points="450.58,-140.99 454.08,-150.99 457.58,-140.99 450.58,-140.99"/>
</g>
<!-- LoginRoutingModule -->
<g id="node6" class="node">
<title>LoginRoutingModule</title>
<polygon fill="#8dd3c7" stroke="black" points="298.11,-122 295.11,-126 274.11,-126 271.11,-122 159.89,-122 159.89,-86 298.11,-86 298.11,-122"/>
<text text-anchor="middle" x="229" y="-99.8" font-family="Times,serif" font-size="14.00">LoginRoutingModule</text>
</g>
<!-- LoginRoutingModule&#45;&gt;LoginModule -->
<g id="edge5" class="edge">
<title>LoginRoutingModule&#45;&gt;LoginModule</title>
<path fill="none" stroke="black" d="M229,-122.02C229,-139.37 229,-163 229,-163 229,-163 424.49,-163 424.49,-163"/>
<polygon fill="black" stroke="black" points="424.49,-166.5 434.49,-163 424.49,-159.5 424.49,-166.5"/>
</g>
<!-- TemplatesModule -->
<g id="node7" class="node">
<title>TemplatesModule</title>
<polygon fill="#8dd3c7" stroke="black" points="141.86,-122 138.86,-126 117.86,-126 114.86,-122 24.14,-122 24.14,-86 141.86,-86 141.86,-122"/>
<text text-anchor="middle" x="83" y="-99.8" font-family="Times,serif" font-size="14.00">TemplatesModule</text>
</g>
<!-- TemplatesModule&#45;&gt;LoginModule -->
<g id="edge6" class="edge">
<title>TemplatesModule&#45;&gt;LoginModule</title>
<path fill="none" stroke="black" d="M83,-122.28C83,-143.32 83,-175 83,-175 83,-175 424.17,-175 424.17,-175"/>
<polygon fill="black" stroke="black" points="424.17,-178.5 434.17,-175 424.17,-171.5 424.17,-178.5"/>
</g>
</g>
</svg>
