<?xml version="1.0" encoding="UTF-8" standalone="no"?>
<!DOCTYPE svg PUBLIC "-//W3C//DTD SVG 1.1//EN"
 "http://www.w3.org/Graphics/SVG/1.1/DTD/svg11.dtd">
<!-- Generated by graphviz version 2.47.0 (20210316.0004)
 -->
<!-- Title: dependencies Pages: 1 -->
<svg width="7090pt" height="290pt"
 viewBox="0.00 0.00 7090.00 290.00" xmlns="http://www.w3.org/2000/svg" xmlns:xlink="http://www.w3.org/1999/xlink">
<g id="graph0" class="graph" transform="scale(1 1) rotate(0) translate(4 286)">
<title>dependencies</title>
<polygon fill="white" stroke="transparent" points="-4,4 -4,-286 7086,-286 7086,4 -4,4"/>
<text text-anchor="start" x="3520.01" y="-42.4" font-family="sans-serif" font-weight="bold" font-size="14.00">Legend</text>
<polygon fill="#ffffb3" stroke="transparent" points="3307,-10 3307,-30 3327,-30 3327,-10 3307,-10"/>
<text text-anchor="start" x="3330.63" y="-15.4" font-family="sans-serif" font-size="14.00"> &#160;Declarations</text>
<polygon fill="#8dd3c7" stroke="transparent" points="3420,-10 3420,-30 3440,-30 3440,-10 3420,-10"/>
<text text-anchor="start" x="3443.73" y="-15.4" font-family="sans-serif" font-size="14.00"> &#160;Module</text>
<polygon fill="#80b1d3" stroke="transparent" points="3506,-10 3506,-30 3526,-30 3526,-10 3506,-10"/>
<text text-anchor="start" x="3529.78" y="-15.4" font-family="sans-serif" font-size="14.00"> &#160;Bootstrap</text>
<polygon fill="#fdb462" stroke="transparent" points="3603,-10 3603,-30 3623,-30 3623,-10 3603,-10"/>
<text text-anchor="start" x="3626.67" y="-15.4" font-family="sans-serif" font-size="14.00"> &#160;Providers</text>
<polygon fill="#fb8072" stroke="transparent" points="3699,-10 3699,-30 3719,-30 3719,-10 3699,-10"/>
<text text-anchor="start" x="3722.73" y="-15.4" font-family="sans-serif" font-size="14.00"> &#160;Exports</text>
<g id="clust1" class="cluster">
<title>cluster_AppModule</title>
<polygon fill="none" stroke="black" stroke-dasharray="1,5" points="8,-70 8,-274 403,-274 403,-70 8,-70"/>
</g>
<g id="clust2" class="cluster">
<title>cluster_AppModule_declarations</title>
<polygon fill="none" stroke="black" points="16,-78 16,-130 138,-130 138,-78 16,-78"/>
</g>
<g id="clust4" class="cluster">
<title>cluster_AppModule_imports</title>
<polygon fill="none" stroke="black" points="146,-78 146,-130 395,-130 395,-78 146,-78"/>
</g>
<g id="clust6" class="cluster">
<title>cluster_AppModule_bootstrap</title>
<polygon fill="none" stroke="black" points="156,-214 156,-266 280,-266 280,-214 156,-214"/>
</g>
<g id="clust14" class="cluster">
<title>cluster_ClientsModule</title>
<polygon fill="none" stroke="black" stroke-dasharray="1,5" points="3161,-70 3161,-198 3899,-198 3899,-70 3161,-70"/>
</g>
<g id="clust15" class="cluster">
<title>cluster_ClientsModule_declarations</title>
<polygon fill="none" stroke="black" points="3337,-78 3337,-130 3891,-130 3891,-78 3337,-78"/>
</g>
<g id="clust19" class="cluster">
<title>cluster_ClientsModule_imports</title>
<polygon fill="none" stroke="black" points="3169,-78 3169,-130 3329,-130 3329,-78 3169,-78"/>
</g>
<g id="clust29" class="cluster">
<title>cluster_CoreModule</title>
<polygon fill="none" stroke="black" stroke-dasharray="1,5" points="411,-138 411,-206 1558,-206 1558,-138 411,-138"/>
</g>
<g id="clust30" class="cluster">
<title>cluster_CoreModule_declarations</title>
<polygon fill="none" stroke="black" points="419,-146 419,-198 815,-198 815,-146 419,-146"/>
</g>
<g id="clust35" class="cluster">
<title>cluster_CoreModule_exports</title>
<polygon fill="none" stroke="black" points="823,-146 823,-198 1550,-198 1550,-146 823,-146"/>
</g>
<g id="clust38" class="cluster">
<title>cluster_IconsModule</title>
<polygon fill="none" stroke="black" stroke-dasharray="1,5" points="3907,-70 3907,-274 4548,-274 4548,-70 3907,-70"/>
</g>
<g id="clust39" class="cluster">
<title>cluster_IconsModule_declarations</title>
<polygon fill="none" stroke="black" points="3925,-78 3925,-130 4535,-130 4535,-78 3925,-78"/>
</g>
<g id="clust45" class="cluster">
<title>cluster_IconsModule_exports</title>
<polygon fill="none" stroke="black" points="3915,-214 3915,-266 4540,-266 4540,-214 3915,-214"/>
</g>
<g id="clust48" class="cluster">
<title>cluster_LoginModule</title>
<polygon fill="none" stroke="black" stroke-dasharray="1,5" points="4556,-70 4556,-198 5524,-198 5524,-70 4556,-70"/>
</g>
<g id="clust49" class="cluster">
<title>cluster_LoginModule_declarations</title>
<polygon fill="none" stroke="black" points="4564,-78 4564,-130 5218,-130 5218,-78 4564,-78"/>
</g>
<g id="clust54" class="cluster">
<title>cluster_LoginModule_imports</title>
<polygon fill="none" stroke="black" points="5226,-78 5226,-130 5516,-130 5516,-78 5226,-78"/>
</g>
<g id="clust64" class="cluster">
<title>cluster_OrdersModule</title>
<polygon fill="none" stroke="black" stroke-dasharray="1,5" points="1566,-70 1566,-198 2415,-198 2415,-70 1566,-70"/>
</g>
<g id="clust65" class="cluster">
<title>cluster_OrdersModule_declarations</title>
<polygon fill="none" stroke="black" points="1574,-78 1574,-130 2124,-130 2124,-78 1574,-78"/>
</g>
<g id="clust69" class="cluster">
<title>cluster_OrdersModule_imports</title>
<polygon fill="none" stroke="black" points="2132,-78 2132,-130 2407,-130 2407,-78 2132,-78"/>
</g>
<g id="clust79" class="cluster">
<title>cluster_PageNotFoundModule</title>
<polygon fill="none" stroke="black" stroke-dasharray="1,5" points="6402,-70 6402,-198 6812,-198 6812,-70 6402,-70"/>
</g>
<g id="clust80" class="cluster">
<title>cluster_PageNotFoundModule_declarations</title>
<polygon fill="none" stroke="black" points="6622,-78 6622,-130 6804,-130 6804,-78 6622,-78"/>
</g>
<g id="clust82" class="cluster">
<title>cluster_PageNotFoundModule_imports</title>
<polygon fill="none" stroke="black" points="6410,-78 6410,-130 6614,-130 6614,-78 6410,-78"/>
</g>
<g id="clust92" class="cluster">
<title>cluster_SharedModule</title>
<polygon fill="none" stroke="black" stroke-dasharray="1,5" points="2423,-138 2423,-206 3153,-206 3153,-138 2423,-138"/>
</g>
<g id="clust93" class="cluster">
<title>cluster_SharedModule_declarations</title>
<polygon fill="none" stroke="black" points="2865,-146 2865,-198 3145,-198 3145,-146 2865,-146"/>
</g>
<g id="clust97" class="cluster">
<title>cluster_SharedModule_exports</title>
<polygon fill="none" stroke="black" points="2431,-146 2431,-198 2857,-198 2857,-146 2431,-146"/>
</g>
<g id="clust100" class="cluster">
<title>cluster_TemplatesModule</title>
<polygon fill="none" stroke="black" stroke-dasharray="1,5" points="5532,-138 5532,-206 6394,-206 6394,-138 5532,-138"/>
</g>
<g id="clust101" class="cluster">
<title>cluster_TemplatesModule_declarations</title>
<polygon fill="none" stroke="black" points="5970,-146 5970,-198 6386,-198 6386,-146 5970,-146"/>
</g>
<g id="clust105" class="cluster">
<title>cluster_TemplatesModule_exports</title>
<polygon fill="none" stroke="black" points="5540,-146 5540,-198 5962,-198 5962,-146 5540,-146"/>
</g>
<g id="clust108" class="cluster">
<title>cluster_UiModule</title>
<polygon fill="none" stroke="black" stroke-dasharray="1,5" points="6820,-70 6820,-274 7074,-274 7074,-70 6820,-70"/>
</g>
<g id="clust109" class="cluster">
<title>cluster_UiModule_declarations</title>
<polygon fill="none" stroke="black" points="6832,-78 6832,-130 7064,-130 7064,-78 6832,-78"/>
</g>
<g id="clust113" class="cluster">
<title>cluster_UiModule_exports</title>
<polygon fill="none" stroke="black" points="6828,-214 6828,-266 7066,-266 7066,-214 6828,-214"/>
</g>
<!-- AppComponent -->
<g id="node1" class="node">
<title>AppComponent</title>
<polygon fill="#ffffb3" stroke="black" points="129.94,-122 24.06,-122 24.06,-86 129.94,-86 129.94,-122"/>
<text text-anchor="middle" x="77" y="-99.8" font-family="Times,serif" font-size="14.00">AppComponent</text>
</g>
<!-- AppModule -->
<g id="node2" class="node">
<title>AppModule</title>
<polygon fill="#8dd3c7" stroke="black" points="259.66,-190 256.66,-194 235.66,-194 232.66,-190 176.34,-190 176.34,-154 259.66,-154 259.66,-190"/>
<text text-anchor="middle" x="218" y="-167.8" font-family="Times,serif" font-size="14.00">AppModule</text>
</g>
<!-- AppComponent&#45;&gt;AppModule -->
<g id="edge1" class="edge">
<title>AppComponent&#45;&gt;AppModule</title>
<path fill="none" stroke="black" d="M77,-122.22C77,-142.37 77,-172 77,-172 77,-172 166.08,-172 166.08,-172"/>
<polygon fill="black" stroke="black" points="166.08,-175.5 176.08,-172 166.08,-168.5 166.08,-175.5"/>
</g>
<!-- AppComponent  -->
<g id="node5" class="node">
<title>AppComponent </title>
<polygon fill="#80b1d3" stroke="black" points="272.44,-258 163.56,-258 163.56,-222 272.44,-222 272.44,-258"/>
<text text-anchor="middle" x="218" y="-235.8" font-family="Times,serif" font-size="14.00">AppComponent </text>
</g>
<!-- AppModule&#45;&gt;AppComponent  -->
<g id="edge4" class="edge">
<title>AppModule&#45;&gt;AppComponent </title>
<path fill="none" stroke="black" stroke-dasharray="1,5" d="M218,-190.22C218,-190.22 218,-211.73 218,-211.73"/>
<polygon fill="black" stroke="black" points="214.5,-211.73 218,-221.73 221.5,-211.73 214.5,-211.73"/>
</g>
<!-- AppRoutingModule -->
<g id="node3" class="node">
<title>AppRoutingModule</title>
<polygon fill="#8dd3c7" stroke="black" points="282.27,-122 279.27,-126 258.27,-126 255.27,-122 153.73,-122 153.73,-86 282.27,-86 282.27,-122"/>
<text text-anchor="middle" x="218" y="-99.8" font-family="Times,serif" font-size="14.00">AppRoutingModule</text>
</g>
<!-- AppRoutingModule&#45;&gt;AppModule -->
<g id="edge2" class="edge">
<title>AppRoutingModule&#45;&gt;AppModule</title>
<path fill="none" stroke="black" d="M218,-122.22C218,-122.22 218,-143.73 218,-143.73"/>
<polygon fill="black" stroke="black" points="214.5,-143.73 218,-153.73 221.5,-143.73 214.5,-143.73"/>
</g>
<!-- CoreModule -->
<g id="node4" class="node">
<title>CoreModule</title>
<polygon fill="#8dd3c7" stroke="black" points="387.26,-122 384.26,-126 363.26,-126 360.26,-122 300.74,-122 300.74,-86 387.26,-86 387.26,-122"/>
<text text-anchor="middle" x="344" y="-99.8" font-family="Times,serif" font-size="14.00">CoreModule</text>
</g>
<!-- CoreModule&#45;&gt;AppModule -->
<g id="edge3" class="edge">
<title>CoreModule&#45;&gt;AppModule</title>
<path fill="none" stroke="black" d="M329.54,-122.29C329.54,-144.21 329.54,-178 329.54,-178 329.54,-178 269.85,-178 269.85,-178"/>
<polygon fill="black" stroke="black" points="269.85,-174.5 259.85,-178 269.85,-181.5 269.85,-174.5"/>
</g>
<!-- FooterComponent  -->
<g id="node14" class="node">
<title>FooterComponent </title>
<polygon fill="#fb8072" stroke="black" points="1430.88,-190 1309.12,-190 1309.12,-154 1430.88,-154 1430.88,-190"/>
<text text-anchor="middle" x="1370" y="-167.8" font-family="Times,serif" font-size="14.00">FooterComponent </text>
</g>
<!-- CoreModule&#45;&gt;FooterComponent  -->
<g id="edge12" class="edge">
<title>CoreModule&#45;&gt;FooterComponent </title>
<path fill="none" stroke="black" stroke-dasharray="5,2" d="M387.43,-94C582.71,-94 1370,-94 1370,-94 1370,-94 1370,-143.91 1370,-143.91"/>
<polygon fill="black" stroke="black" points="1366.5,-143.91 1370,-153.91 1373.5,-143.91 1366.5,-143.91"/>
</g>
<!-- HeaderComponent  -->
<g id="node15" class="node">
<title>HeaderComponent </title>
<polygon fill="#fb8072" stroke="black" points="1291.74,-190 1166.26,-190 1166.26,-154 1291.74,-154 1291.74,-190"/>
<text text-anchor="middle" x="1229" y="-167.8" font-family="Times,serif" font-size="14.00">HeaderComponent </text>
</g>
<!-- CoreModule&#45;&gt;HeaderComponent  -->
<g id="edge13" class="edge">
<title>CoreModule&#45;&gt;HeaderComponent </title>
<path fill="none" stroke="black" stroke-dasharray="5,2" d="M387.28,-98C564.97,-98 1229,-98 1229,-98 1229,-98 1229,-143.71 1229,-143.71"/>
<polygon fill="black" stroke="black" points="1225.5,-143.71 1229,-153.71 1232.5,-143.71 1225.5,-143.71"/>
</g>
<!-- IconsModule  -->
<g id="node16" class="node">
<title>IconsModule </title>
<polygon fill="#fb8072" stroke="black" points="1541.87,-190 1448.13,-190 1448.13,-154 1541.87,-154 1541.87,-190"/>
<text text-anchor="middle" x="1495" y="-167.8" font-family="Times,serif" font-size="14.00">IconsModule </text>
</g>
<!-- CoreModule&#45;&gt;IconsModule  -->
<g id="edge14" class="edge">
<title>CoreModule&#45;&gt;IconsModule </title>
<path fill="none" stroke="black" stroke-dasharray="5,2" d="M387.47,-90C595.5,-90 1479.44,-90 1479.44,-90 1479.44,-90 1479.44,-143.8 1479.44,-143.8"/>
<polygon fill="black" stroke="black" points="1475.94,-143.8 1479.44,-153.8 1482.94,-143.8 1475.94,-143.8"/>
</g>
<!-- LoginModule  -->
<g id="node17" class="node">
<title>LoginModule </title>
<polygon fill="#fb8072" stroke="black" points="1053.49,-190 956.51,-190 956.51,-154 1053.49,-154 1053.49,-190"/>
<text text-anchor="middle" x="1005" y="-167.8" font-family="Times,serif" font-size="14.00">LoginModule </text>
</g>
<!-- CoreModule&#45;&gt;LoginModule  -->
<g id="edge15" class="edge">
<title>CoreModule&#45;&gt;LoginModule </title>
<path fill="none" stroke="black" stroke-dasharray="5,2" d="M387.37,-106C534.42,-106 1005,-106 1005,-106 1005,-106 1005,-143.97 1005,-143.97"/>
<polygon fill="black" stroke="black" points="1001.5,-143.97 1005,-153.97 1008.5,-143.97 1001.5,-143.97"/>
</g>
<!-- NavComponent  -->
<g id="node18" class="node">
<title>NavComponent </title>
<polygon fill="#fb8072" stroke="black" points="939.15,-190 830.85,-190 830.85,-154 939.15,-154 939.15,-190"/>
<text text-anchor="middle" x="885" y="-167.8" font-family="Times,serif" font-size="14.00">NavComponent </text>
</g>
<!-- CoreModule&#45;&gt;NavComponent  -->
<g id="edge16" class="edge">
<title>CoreModule&#45;&gt;NavComponent </title>
<path fill="none" stroke="black" stroke-dasharray="5,2" d="M387.36,-110C515.74,-110 885,-110 885,-110 885,-110 885,-143.73 885,-143.73"/>
<polygon fill="black" stroke="black" points="881.5,-143.73 885,-153.73 888.5,-143.73 881.5,-143.73"/>
</g>
<!-- UiModule  -->
<g id="node19" class="node">
<title>UiModule </title>
<polygon fill="#fb8072" stroke="black" points="1148.55,-190 1071.45,-190 1071.45,-154 1148.55,-154 1148.55,-190"/>
<text text-anchor="middle" x="1110" y="-167.8" font-family="Times,serif" font-size="14.00">UiModule </text>
</g>
<!-- CoreModule&#45;&gt;UiModule  -->
<g id="edge17" class="edge">
<title>CoreModule&#45;&gt;UiModule </title>
<path fill="none" stroke="black" stroke-dasharray="5,2" d="M387.38,-102C549.42,-102 1110,-102 1110,-102 1110,-102 1110,-143.97 1110,-143.97"/>
<polygon fill="black" stroke="black" points="1106.5,-143.97 1110,-153.97 1113.5,-143.97 1106.5,-143.97"/>
</g>
<!-- PageAddClientComponent -->
<g id="node6" class="node">
<title>PageAddClientComponent</title>
<polygon fill="#ffffb3" stroke="black" points="3695.37,-122 3528.63,-122 3528.63,-86 3695.37,-86 3695.37,-122"/>
<text text-anchor="middle" x="3612" y="-99.8" font-family="Times,serif" font-size="14.00">PageAddClientComponent</text>
</g>
<!-- ClientsModule -->
<g id="node9" class="node">
<title>ClientsModule</title>
<polygon fill="#8dd3c7" stroke="black" points="3569.72,-190 3566.72,-194 3545.72,-194 3542.72,-190 3470.28,-190 3470.28,-154 3569.72,-154 3569.72,-190"/>
<text text-anchor="middle" x="3520" y="-167.8" font-family="Times,serif" font-size="14.00">ClientsModule</text>
</g>
<!-- PageAddClientComponent&#45;&gt;ClientsModule -->
<g id="edge5" class="edge">
<title>PageAddClientComponent&#45;&gt;ClientsModule</title>
<path fill="none" stroke="black" d="M3549.09,-122.22C3549.09,-122.22 3549.09,-143.73 3549.09,-143.73"/>
<polygon fill="black" stroke="black" points="3545.59,-143.73 3549.09,-153.73 3552.59,-143.73 3545.59,-143.73"/>
</g>
<!-- PageEditClientComponent -->
<g id="node7" class="node">
<title>PageEditClientComponent</title>
<polygon fill="#ffffb3" stroke="black" points="3511.1,-122 3344.9,-122 3344.9,-86 3511.1,-86 3511.1,-122"/>
<text text-anchor="middle" x="3428" y="-99.8" font-family="Times,serif" font-size="14.00">PageEditClientComponent</text>
</g>
<!-- PageEditClientComponent&#45;&gt;ClientsModule -->
<g id="edge6" class="edge">
<title>PageEditClientComponent&#45;&gt;ClientsModule</title>
<path fill="none" stroke="black" d="M3490.72,-122.22C3490.72,-122.22 3490.72,-143.73 3490.72,-143.73"/>
<polygon fill="black" stroke="black" points="3487.22,-143.73 3490.72,-153.73 3494.22,-143.73 3487.22,-143.73"/>
</g>
<!-- PageListClientsComponent -->
<g id="node8" class="node">
<title>PageListClientsComponent</title>
<polygon fill="#ffffb3" stroke="black" points="3882.99,-122 3713.01,-122 3713.01,-86 3882.99,-86 3882.99,-122"/>
<text text-anchor="middle" x="3798" y="-99.8" font-family="Times,serif" font-size="14.00">PageListClientsComponent</text>
</g>
<!-- PageListClientsComponent&#45;&gt;ClientsModule -->
<g id="edge7" class="edge">
<title>PageListClientsComponent&#45;&gt;ClientsModule</title>
<path fill="none" stroke="black" d="M3798,-122.02C3798,-139.37 3798,-163 3798,-163 3798,-163 3579.7,-163 3579.7,-163"/>
<polygon fill="black" stroke="black" points="3579.7,-159.5 3569.7,-163 3579.7,-166.5 3579.7,-159.5"/>
</g>
<!-- ClientsRoutingModule -->
<g id="node10" class="node">
<title>ClientsRoutingModule</title>
<polygon fill="#8dd3c7" stroke="black" points="3321.34,-122 3318.34,-126 3297.34,-126 3294.34,-122 3176.66,-122 3176.66,-86 3321.34,-86 3321.34,-122"/>
<text text-anchor="middle" x="3249" y="-99.8" font-family="Times,serif" font-size="14.00">ClientsRoutingModule</text>
</g>
<!-- ClientsRoutingModule&#45;&gt;ClientsModule -->
<g id="edge8" class="edge">
<title>ClientsRoutingModule&#45;&gt;ClientsModule</title>
<path fill="none" stroke="black" d="M3249,-122.22C3249,-142.37 3249,-172 3249,-172 3249,-172 3460.29,-172 3460.29,-172"/>
<polygon fill="black" stroke="black" points="3460.29,-175.5 3470.29,-172 3460.29,-168.5 3460.29,-175.5"/>
</g>
<!-- FooterComponent -->
<g id="node11" class="node">
<title>FooterComponent</title>
<polygon fill="#ffffb3" stroke="black" points="806.88,-190 689.12,-190 689.12,-154 806.88,-154 806.88,-190"/>
<text text-anchor="middle" x="748" y="-167.8" font-family="Times,serif" font-size="14.00">FooterComponent</text>
</g>
<!-- FooterComponent&#45;&gt;CoreModule -->
<g id="edge9" class="edge">
<title>FooterComponent&#45;&gt;CoreModule</title>
<path fill="none" stroke="black" d="M748,-153.97C748,-136.94 748,-114 748,-114 748,-114 397.62,-114 397.62,-114"/>
<polygon fill="black" stroke="black" points="397.62,-110.5 387.62,-114 397.62,-117.5 397.62,-110.5"/>
</g>
<!-- HeaderComponent -->
<g id="node12" class="node">
<title>HeaderComponent</title>
<polygon fill="#ffffb3" stroke="black" points="670.74,-190 549.26,-190 549.26,-154 670.74,-154 670.74,-190"/>
<text text-anchor="middle" x="610" y="-167.8" font-family="Times,serif" font-size="14.00">HeaderComponent</text>
</g>
<!-- HeaderComponent&#45;&gt;CoreModule -->
<g id="edge10" class="edge">
<title>HeaderComponent&#45;&gt;CoreModule</title>
<path fill="none" stroke="black" d="M610,-153.72C610,-138.05 610,-118 610,-118 610,-118 397.33,-118 397.33,-118"/>
<polygon fill="black" stroke="black" points="397.33,-114.5 387.33,-118 397.33,-121.5 397.33,-114.5"/>
</g>
<!-- NavComponent -->
<g id="node13" class="node">
<title>NavComponent</title>
<polygon fill="#ffffb3" stroke="black" points="531.15,-190 426.85,-190 426.85,-154 531.15,-154 531.15,-190"/>
<text text-anchor="middle" x="479" y="-167.8" font-family="Times,serif" font-size="14.00">NavComponent</text>
</g>
<!-- NavComponent&#45;&gt;CoreModule -->
<g id="edge11" class="edge">
<title>NavComponent&#45;&gt;CoreModule</title>
<path fill="none" stroke="black" d="M426.83,-166C394.25,-166 358.46,-166 358.46,-166 358.46,-166 358.46,-132.27 358.46,-132.27"/>
<polygon fill="black" stroke="black" points="361.96,-132.27 358.46,-122.27 354.96,-132.27 361.96,-132.27"/>
</g>
<!-- IconCloseComponent -->
<g id="node20" class="node">
<title>IconCloseComponent</title>
<polygon fill="#ffffb3" stroke="black" points="4527.09,-122 4388.91,-122 4388.91,-86 4527.09,-86 4527.09,-122"/>
<text text-anchor="middle" x="4458" y="-99.8" font-family="Times,serif" font-size="14.00">IconCloseComponent</text>
</g>
<!-- IconsModule -->
<g id="node24" class="node">
<title>IconsModule</title>
<polygon fill="#8dd3c7" stroke="black" points="4196.87,-190 4193.87,-194 4172.87,-194 4169.87,-190 4107.13,-190 4107.13,-154 4196.87,-154 4196.87,-190"/>
<text text-anchor="middle" x="4152" y="-167.8" font-family="Times,serif" font-size="14.00">IconsModule</text>
</g>
<!-- IconCloseComponent&#45;&gt;IconsModule -->
<g id="edge18" class="edge">
<title>IconCloseComponent&#45;&gt;IconsModule</title>
<path fill="none" stroke="black" d="M4393.72,-122.28C4393.72,-143.32 4393.72,-175 4393.72,-175 4393.72,-175 4206.9,-175 4206.9,-175"/>
<polygon fill="black" stroke="black" points="4206.9,-171.5 4196.9,-175 4206.9,-178.5 4206.9,-171.5"/>
</g>
<!-- IconDeleteComponent -->
<g id="node21" class="node">
<title>IconDeleteComponent</title>
<polygon fill="#ffffb3" stroke="black" points="4371.24,-122 4228.76,-122 4228.76,-86 4371.24,-86 4371.24,-122"/>
<text text-anchor="middle" x="4300" y="-99.8" font-family="Times,serif" font-size="14.00">IconDeleteComponent</text>
</g>
<!-- IconDeleteComponent&#45;&gt;IconsModule -->
<g id="edge19" class="edge">
<title>IconDeleteComponent&#45;&gt;IconsModule</title>
<path fill="none" stroke="black" d="M4233.92,-122.03C4233.92,-141.58 4233.92,-170 4233.92,-170 4233.92,-170 4207.27,-170 4207.27,-170"/>
<polygon fill="black" stroke="black" points="4207.27,-166.5 4197.27,-170 4207.27,-173.5 4207.27,-166.5"/>
</g>
<!-- IconEditComponent -->
<g id="node22" class="node">
<title>IconEditComponent</title>
<polygon fill="#ffffb3" stroke="black" points="4210.54,-122 4081.46,-122 4081.46,-86 4210.54,-86 4210.54,-122"/>
<text text-anchor="middle" x="4146" y="-99.8" font-family="Times,serif" font-size="14.00">IconEditComponent</text>
</g>
<!-- IconEditComponent&#45;&gt;IconsModule -->
<g id="edge20" class="edge">
<title>IconEditComponent&#45;&gt;IconsModule</title>
<path fill="none" stroke="black" d="M4152,-122.22C4152,-122.22 4152,-143.73 4152,-143.73"/>
<polygon fill="black" stroke="black" points="4148.5,-143.73 4152,-153.73 4155.5,-143.73 4148.5,-143.73"/>
</g>
<!-- IconNavComponent -->
<g id="node23" class="node">
<title>IconNavComponent</title>
<polygon fill="#ffffb3" stroke="black" points="4062.53,-122 3933.47,-122 3933.47,-86 4062.53,-86 4062.53,-122"/>
<text text-anchor="middle" x="3998" y="-99.8" font-family="Times,serif" font-size="14.00">IconNavComponent</text>
</g>
<!-- IconNavComponent&#45;&gt;IconsModule -->
<g id="edge21" class="edge">
<title>IconNavComponent&#45;&gt;IconsModule</title>
<path fill="none" stroke="black" d="M4015.43,-122.22C4015.43,-142.37 4015.43,-172 4015.43,-172 4015.43,-172 4096.9,-172 4096.9,-172"/>
<polygon fill="black" stroke="black" points="4096.9,-175.5 4106.9,-172 4096.9,-168.5 4096.9,-175.5"/>
</g>
<!-- IconCloseComponent  -->
<g id="node25" class="node">
<title>IconCloseComponent </title>
<polygon fill="#fb8072" stroke="black" points="4380.59,-258 4239.41,-258 4239.41,-222 4380.59,-222 4380.59,-258"/>
<text text-anchor="middle" x="4310" y="-235.8" font-family="Times,serif" font-size="14.00">IconCloseComponent </text>
</g>
<!-- IconsModule&#45;&gt;IconCloseComponent  -->
<g id="edge22" class="edge">
<title>IconsModule&#45;&gt;IconCloseComponent </title>
<path fill="none" stroke="black" stroke-dasharray="5,2" d="M4197.16,-185C4242.38,-185 4305.29,-185 4305.29,-185 4305.29,-185 4305.29,-211.99 4305.29,-211.99"/>
<polygon fill="black" stroke="black" points="4301.79,-211.99 4305.29,-221.99 4308.79,-211.99 4301.79,-211.99"/>
</g>
<!-- IconDeleteComponent  -->
<g id="node26" class="node">
<title>IconDeleteComponent </title>
<polygon fill="#fb8072" stroke="black" points="4221.24,-258 4074.76,-258 4074.76,-222 4221.24,-222 4221.24,-258"/>
<text text-anchor="middle" x="4148" y="-235.8" font-family="Times,serif" font-size="14.00">IconDeleteComponent </text>
</g>
<!-- IconsModule&#45;&gt;IconDeleteComponent  -->
<g id="edge23" class="edge">
<title>IconsModule&#45;&gt;IconDeleteComponent </title>
<path fill="none" stroke="black" stroke-dasharray="5,2" d="M4152,-190.22C4152,-190.22 4152,-211.73 4152,-211.73"/>
<polygon fill="black" stroke="black" points="4148.5,-211.73 4152,-221.73 4155.5,-211.73 4148.5,-211.73"/>
</g>
<!-- IconEditComponent  -->
<g id="node27" class="node">
<title>IconEditComponent </title>
<polygon fill="#fb8072" stroke="black" points="4056.54,-258 3923.46,-258 3923.46,-222 4056.54,-222 4056.54,-258"/>
<text text-anchor="middle" x="3990" y="-235.8" font-family="Times,serif" font-size="14.00">IconEditComponent </text>
</g>
<!-- IconsModule&#45;&gt;IconEditComponent  -->
<g id="edge24" class="edge">
<title>IconsModule&#45;&gt;IconEditComponent </title>
<path fill="none" stroke="black" stroke-dasharray="5,2" d="M4106.71,-181C4054.07,-181 3974.33,-181 3974.33,-181 3974.33,-181 3974.33,-211.98 3974.33,-211.98"/>
<polygon fill="black" stroke="black" points="3970.83,-211.98 3974.33,-221.98 3977.83,-211.98 3970.83,-211.98"/>
</g>
<!-- IconNavComponent  -->
<g id="node28" class="node">
<title>IconNavComponent </title>
<polygon fill="#fb8072" stroke="black" points="4531.53,-258 4398.47,-258 4398.47,-222 4531.53,-222 4531.53,-258"/>
<text text-anchor="middle" x="4465" y="-235.8" font-family="Times,serif" font-size="14.00">IconNavComponent </text>
</g>
<!-- IconsModule&#45;&gt;IconNavComponent  -->
<g id="edge25" class="edge">
<title>IconsModule&#45;&gt;IconNavComponent </title>
<path fill="none" stroke="black" stroke-dasharray="5,2" d="M4197.19,-180C4283.38,-180 4462.77,-180 4462.77,-180 4462.77,-180 4462.77,-212 4462.77,-212"/>
<polygon fill="black" stroke="black" points="4459.27,-212 4462.77,-222 4466.27,-212 4459.27,-212"/>
</g>
<!-- PageForgotComponent -->
<g id="node29" class="node">
<title>PageForgotComponent</title>
<polygon fill="#ffffb3" stroke="black" points="5209.88,-122 5064.12,-122 5064.12,-86 5209.88,-86 5209.88,-122"/>
<text text-anchor="middle" x="5137" y="-99.8" font-family="Times,serif" font-size="14.00">PageForgotComponent</text>
</g>
<!-- LoginModule -->
<g id="node33" class="node">
<title>LoginModule</title>
<polygon fill="#8dd3c7" stroke="black" points="5102.49,-190 5099.49,-194 5078.49,-194 5075.49,-190 5009.51,-190 5009.51,-154 5102.49,-154 5102.49,-190"/>
<text text-anchor="middle" x="5056" y="-167.8" font-family="Times,serif" font-size="14.00">LoginModule</text>
</g>
<!-- PageForgotComponent&#45;&gt;LoginModule -->
<g id="edge26" class="edge">
<title>PageForgotComponent&#45;&gt;LoginModule</title>
<path fill="none" stroke="black" d="M5083.28,-122.22C5083.28,-122.22 5083.28,-143.73 5083.28,-143.73"/>
<polygon fill="black" stroke="black" points="5079.78,-143.73 5083.28,-153.73 5086.78,-143.73 5079.78,-143.73"/>
</g>
<!-- PageResetComponent -->
<g id="node30" class="node">
<title>PageResetComponent</title>
<polygon fill="#ffffb3" stroke="black" points="5045.65,-122 4906.35,-122 4906.35,-86 5045.65,-86 5045.65,-122"/>
<text text-anchor="middle" x="4976" y="-99.8" font-family="Times,serif" font-size="14.00">PageResetComponent</text>
</g>
<!-- PageResetComponent&#45;&gt;LoginModule -->
<g id="edge27" class="edge">
<title>PageResetComponent&#45;&gt;LoginModule</title>
<path fill="none" stroke="black" d="M5027.66,-122.22C5027.66,-122.22 5027.66,-143.73 5027.66,-143.73"/>
<polygon fill="black" stroke="black" points="5024.16,-143.73 5027.66,-153.73 5031.16,-143.73 5024.16,-143.73"/>
</g>
<!-- PageSignInComponent -->
<g id="node31" class="node">
<title>PageSignInComponent</title>
<polygon fill="#ffffb3" stroke="black" points="4887.88,-122 4742.12,-122 4742.12,-86 4887.88,-86 4887.88,-122"/>
<text text-anchor="middle" x="4815" y="-99.8" font-family="Times,serif" font-size="14.00">PageSignInComponent</text>
</g>
<!-- PageSignInComponent&#45;&gt;LoginModule -->
<g id="edge28" class="edge">
<title>PageSignInComponent&#45;&gt;LoginModule</title>
<path fill="none" stroke="black" d="M4815,-122.03C4815,-138.4 4815,-160 4815,-160 4815,-160 4999.25,-160 4999.25,-160"/>
<polygon fill="black" stroke="black" points="4999.25,-163.5 5009.25,-160 4999.25,-156.5 4999.25,-163.5"/>
</g>
<!-- PageSignUpComponent -->
<g id="node32" class="node">
<title>PageSignUpComponent</title>
<polygon fill="#ffffb3" stroke="black" points="4723.82,-122 4572.18,-122 4572.18,-86 4723.82,-86 4723.82,-122"/>
<text text-anchor="middle" x="4648" y="-99.8" font-family="Times,serif" font-size="14.00">PageSignUpComponent</text>
</g>
<!-- PageSignUpComponent&#45;&gt;LoginModule -->
<g id="edge29" class="edge">
<title>PageSignUpComponent&#45;&gt;LoginModule</title>
<path fill="none" stroke="black" d="M4648,-122.3C4648,-140.27 4648,-165 4648,-165 4648,-165 4999.2,-165 4999.2,-165"/>
<polygon fill="black" stroke="black" points="4999.2,-168.5 5009.2,-165 4999.2,-161.5 4999.2,-168.5"/>
</g>
<!-- LoginRoutingModule -->
<g id="node34" class="node">
<title>LoginRoutingModule</title>
<polygon fill="#8dd3c7" stroke="black" points="5372.11,-122 5369.11,-126 5348.11,-126 5345.11,-122 5233.89,-122 5233.89,-86 5372.11,-86 5372.11,-122"/>
<text text-anchor="middle" x="5303" y="-99.8" font-family="Times,serif" font-size="14.00">LoginRoutingModule</text>
</g>
<!-- LoginRoutingModule&#45;&gt;LoginModule -->
<g id="edge30" class="edge">
<title>LoginRoutingModule&#45;&gt;LoginModule</title>
<path fill="none" stroke="black" d="M5303,-122.02C5303,-139.37 5303,-163 5303,-163 5303,-163 5112.75,-163 5112.75,-163"/>
<polygon fill="black" stroke="black" points="5112.75,-159.5 5102.75,-163 5112.75,-166.5 5112.75,-159.5"/>
</g>
<!-- TemplatesModule -->
<g id="node35" class="node">
<title>TemplatesModule</title>
<polygon fill="#8dd3c7" stroke="black" points="5507.86,-122 5504.86,-126 5483.86,-126 5480.86,-122 5390.14,-122 5390.14,-86 5507.86,-86 5507.86,-122"/>
<text text-anchor="middle" x="5449" y="-99.8" font-family="Times,serif" font-size="14.00">TemplatesModule</text>
</g>
<!-- TemplatesModule&#45;&gt;LoginModule -->
<g id="edge31" class="edge">
<title>TemplatesModule&#45;&gt;LoginModule</title>
<path fill="none" stroke="black" d="M5429.36,-122.22C5429.36,-142.37 5429.36,-172 5429.36,-172 5429.36,-172 5112.53,-172 5112.53,-172"/>
<polygon fill="black" stroke="black" points="5112.53,-168.5 5102.53,-172 5112.53,-175.5 5112.53,-168.5"/>
</g>
<!-- TemplateContainerComponent  -->
<g id="node52" class="node">
<title>TemplateContainerComponent </title>
<polygon fill="#fb8072" stroke="black" points="5740.41,-190 5547.59,-190 5547.59,-154 5740.41,-154 5740.41,-190"/>
<text text-anchor="middle" x="5644" y="-167.8" font-family="Times,serif" font-size="14.00">TemplateContainerComponent </text>
</g>
<!-- TemplatesModule&#45;&gt;TemplateContainerComponent  -->
<g id="edge47" class="edge">
<title>TemplatesModule&#45;&gt;TemplateContainerComponent </title>
<path fill="none" stroke="black" stroke-dasharray="5,2" d="M5468.64,-122.25C5468.64,-145.02 5468.64,-181 5468.64,-181 5468.64,-181 5537.35,-181 5537.35,-181"/>
<polygon fill="black" stroke="black" points="5537.35,-184.5 5547.35,-181 5537.35,-177.5 5537.35,-184.5"/>
</g>
<!-- TemplateFullWidthComponent  -->
<g id="node53" class="node">
<title>TemplateFullWidthComponent </title>
<polygon fill="#fb8072" stroke="black" points="5953.76,-190 5758.24,-190 5758.24,-154 5953.76,-154 5953.76,-190"/>
<text text-anchor="middle" x="5856" y="-167.8" font-family="Times,serif" font-size="14.00">TemplateFullWidthComponent </text>
</g>
<!-- TemplatesModule&#45;&gt;TemplateFullWidthComponent  -->
<g id="edge48" class="edge">
<title>TemplatesModule&#45;&gt;TemplateFullWidthComponent </title>
<path fill="none" stroke="black" stroke-dasharray="5,2" d="M5508.18,-113C5621.06,-113 5856,-113 5856,-113 5856,-113 5856,-143.98 5856,-143.98"/>
<polygon fill="black" stroke="black" points="5852.5,-143.98 5856,-153.98 5859.5,-143.98 5852.5,-143.98"/>
</g>
<!-- PageAddOrderComponent -->
<g id="node36" class="node">
<title>PageAddOrderComponent</title>
<polygon fill="#ffffb3" stroke="black" points="1929.79,-122 1764.21,-122 1764.21,-86 1929.79,-86 1929.79,-122"/>
<text text-anchor="middle" x="1847" y="-99.8" font-family="Times,serif" font-size="14.00">PageAddOrderComponent</text>
</g>
<!-- OrdersModule -->
<g id="node39" class="node">
<title>OrdersModule</title>
<polygon fill="#8dd3c7" stroke="black" points="2080.64,-190 2077.64,-194 2056.64,-194 2053.64,-190 1983.36,-190 1983.36,-154 2080.64,-154 2080.64,-190"/>
<text text-anchor="middle" x="2032" y="-167.8" font-family="Times,serif" font-size="14.00">OrdersModule</text>
</g>
<!-- PageAddOrderComponent&#45;&gt;OrdersModule -->
<g id="edge32" class="edge">
<title>PageAddOrderComponent&#45;&gt;OrdersModule</title>
<path fill="none" stroke="black" d="M1847,-122.27C1847,-140.56 1847,-166 1847,-166 1847,-166 1972.91,-166 1972.91,-166"/>
<polygon fill="black" stroke="black" points="1972.91,-169.5 1982.91,-166 1972.91,-162.5 1972.91,-169.5"/>
</g>
<!-- PageEditOrderComponent -->
<g id="node37" class="node">
<title>PageEditOrderComponent</title>
<polygon fill="#ffffb3" stroke="black" points="1746.02,-122 1581.98,-122 1581.98,-86 1746.02,-86 1746.02,-122"/>
<text text-anchor="middle" x="1664" y="-99.8" font-family="Times,serif" font-size="14.00">PageEditOrderComponent</text>
</g>
<!-- PageEditOrderComponent&#45;&gt;OrdersModule -->
<g id="edge33" class="edge">
<title>PageEditOrderComponent&#45;&gt;OrdersModule</title>
<path fill="none" stroke="black" d="M1664,-122.29C1664,-144.21 1664,-178 1664,-178 1664,-178 1973.13,-178 1973.13,-178"/>
<polygon fill="black" stroke="black" points="1973.13,-181.5 1983.13,-178 1973.13,-174.5 1973.13,-181.5"/>
</g>
<!-- PageListOrdersComponent -->
<g id="node38" class="node">
<title>PageListOrdersComponent</title>
<polygon fill="#ffffb3" stroke="black" points="2116.41,-122 1947.59,-122 1947.59,-86 2116.41,-86 2116.41,-122"/>
<text text-anchor="middle" x="2032" y="-99.8" font-family="Times,serif" font-size="14.00">PageListOrdersComponent</text>
</g>
<!-- PageListOrdersComponent&#45;&gt;OrdersModule -->
<g id="edge34" class="edge">
<title>PageListOrdersComponent&#45;&gt;OrdersModule</title>
<path fill="none" stroke="black" d="M2032,-122.22C2032,-122.22 2032,-143.73 2032,-143.73"/>
<polygon fill="black" stroke="black" points="2028.5,-143.73 2032,-153.73 2035.5,-143.73 2028.5,-143.73"/>
</g>
<!-- OrdersRoutingModule -->
<g id="node40" class="node">
<title>OrdersRoutingModule</title>
<polygon fill="#8dd3c7" stroke="black" points="2282.25,-122 2279.25,-126 2258.25,-126 2255.25,-122 2139.75,-122 2139.75,-86 2282.25,-86 2282.25,-122"/>
<text text-anchor="middle" x="2211" y="-99.8" font-family="Times,serif" font-size="14.00">OrdersRoutingModule</text>
</g>
<!-- OrdersRoutingModule&#45;&gt;OrdersModule -->
<g id="edge35" class="edge">
<title>OrdersRoutingModule&#45;&gt;OrdersModule</title>
<path fill="none" stroke="black" d="M2211,-122.02C2211,-139.37 2211,-163 2211,-163 2211,-163 2090.91,-163 2090.91,-163"/>
<polygon fill="black" stroke="black" points="2090.91,-159.5 2080.91,-163 2090.91,-166.5 2090.91,-159.5"/>
</g>
<!-- SharedModule -->
<g id="node41" class="node">
<title>SharedModule</title>
<polygon fill="#8dd3c7" stroke="black" points="2399.42,-122 2396.42,-126 2375.42,-126 2372.42,-122 2300.58,-122 2300.58,-86 2399.42,-86 2399.42,-122"/>
<text text-anchor="middle" x="2350" y="-99.8" font-family="Times,serif" font-size="14.00">SharedModule</text>
</g>
<!-- SharedModule&#45;&gt;IconsModule  -->
<g id="edge42" class="edge">
<title>SharedModule&#45;&gt;IconsModule </title>
<path fill="none" stroke="black" stroke-dasharray="5,2" d="M2325.39,-122.19C2325.39,-130.28 2325.39,-138 2325.39,-138 2325.39,-138 1510.56,-138 1510.56,-138 1510.56,-138 1510.56,-143.81 1510.56,-143.81"/>
<polygon fill="black" stroke="black" points="1507.06,-143.81 1510.56,-153.81 1514.06,-143.81 1507.06,-143.81"/>
</g>
<!-- SharedModule&#45;&gt;OrdersModule -->
<g id="edge36" class="edge">
<title>SharedModule&#45;&gt;OrdersModule</title>
<path fill="none" stroke="black" d="M2350,-122.22C2350,-142.37 2350,-172 2350,-172 2350,-172 2090.64,-172 2090.64,-172"/>
<polygon fill="black" stroke="black" points="2090.64,-168.5 2080.64,-172 2090.64,-175.5 2090.64,-168.5"/>
</g>
<!-- BtnComponent  -->
<g id="node47" class="node">
<title>BtnComponent </title>
<polygon fill="#fb8072" stroke="black" points="2848.56,-190 2743.44,-190 2743.44,-154 2848.56,-154 2848.56,-190"/>
<text text-anchor="middle" x="2796" y="-167.8" font-family="Times,serif" font-size="14.00">BtnComponent </text>
</g>
<!-- SharedModule&#45;&gt;BtnComponent  -->
<g id="edge41" class="edge">
<title>SharedModule&#45;&gt;BtnComponent </title>
<path fill="none" stroke="black" stroke-dasharray="5,2" d="M2399.43,-108C2515.56,-108 2796,-108 2796,-108 2796,-108 2796,-143.83 2796,-143.83"/>
<polygon fill="black" stroke="black" points="2792.5,-143.83 2796,-153.83 2799.5,-143.83 2792.5,-143.83"/>
</g>
<!-- TableLightComponent  -->
<g id="node48" class="node">
<title>TableLightComponent </title>
<polygon fill="#fb8072" stroke="black" points="2725.54,-190 2578.46,-190 2578.46,-154 2725.54,-154 2725.54,-190"/>
<text text-anchor="middle" x="2652" y="-167.8" font-family="Times,serif" font-size="14.00">TableLightComponent </text>
</g>
<!-- SharedModule&#45;&gt;TableLightComponent  -->
<g id="edge43" class="edge">
<title>SharedModule&#45;&gt;TableLightComponent </title>
<path fill="none" stroke="black" stroke-dasharray="5,2" d="M2399.53,-115C2485.21,-115 2652,-115 2652,-115 2652,-115 2652,-143.96 2652,-143.96"/>
<polygon fill="black" stroke="black" points="2648.5,-143.96 2652,-153.96 2655.5,-143.96 2648.5,-143.96"/>
</g>
<!-- TemplatesModule  -->
<g id="node49" class="node">
<title>TemplatesModule </title>
<polygon fill="#fb8072" stroke="black" points="2560.86,-190 2439.14,-190 2439.14,-154 2560.86,-154 2560.86,-190"/>
<text text-anchor="middle" x="2500" y="-167.8" font-family="Times,serif" font-size="14.00">TemplatesModule </text>
</g>
<!-- SharedModule&#45;&gt;TemplatesModule  -->
<g id="edge44" class="edge">
<title>SharedModule&#45;&gt;TemplatesModule </title>
<path fill="none" stroke="black" stroke-dasharray="5,2" d="M2374.61,-122.25C2374.61,-145.02 2374.61,-181 2374.61,-181 2374.61,-181 2429.14,-181 2429.14,-181"/>
<polygon fill="black" stroke="black" points="2429.14,-184.5 2439.14,-181 2429.14,-177.5 2429.14,-184.5"/>
</g>
<!-- PageNotFoundComponent -->
<g id="node42" class="node">
<title>PageNotFoundComponent</title>
<polygon fill="#ffffb3" stroke="black" points="6795.82,-122 6630.18,-122 6630.18,-86 6795.82,-86 6795.82,-122"/>
<text text-anchor="middle" x="6713" y="-99.8" font-family="Times,serif" font-size="14.00">PageNotFoundComponent</text>
</g>
<!-- PageNotFoundModule -->
<g id="node43" class="node">
<title>PageNotFoundModule</title>
<polygon fill="#8dd3c7" stroke="black" points="6683.54,-190 6680.54,-194 6659.54,-194 6656.54,-190 6540.46,-190 6540.46,-154 6683.54,-154 6683.54,-190"/>
<text text-anchor="middle" x="6612" y="-167.8" font-family="Times,serif" font-size="14.00">PageNotFoundModule</text>
</g>
<!-- PageNotFoundComponent&#45;&gt;PageNotFoundModule -->
<g id="edge37" class="edge">
<title>PageNotFoundComponent&#45;&gt;PageNotFoundModule</title>
<path fill="none" stroke="black" d="M6657.05,-122.22C6657.05,-122.22 6657.05,-143.73 6657.05,-143.73"/>
<polygon fill="black" stroke="black" points="6653.55,-143.73 6657.05,-153.73 6660.55,-143.73 6653.55,-143.73"/>
</g>
<!-- PageNotFoundRoutingModule -->
<g id="node44" class="node">
<title>PageNotFoundRoutingModule</title>
<polygon fill="#8dd3c7" stroke="black" points="6606.16,-122 6603.16,-126 6582.16,-126 6579.16,-122 6417.84,-122 6417.84,-86 6606.16,-86 6606.16,-122"/>
<text text-anchor="middle" x="6512" y="-99.8" font-family="Times,serif" font-size="14.00">PageNotFoundRoutingModule</text>
</g>
<!-- PageNotFoundRoutingModule&#45;&gt;PageNotFoundModule -->
<g id="edge38" class="edge">
<title>PageNotFoundRoutingModule&#45;&gt;PageNotFoundModule</title>
<path fill="none" stroke="black" d="M6573.28,-122.22C6573.28,-122.22 6573.28,-143.73 6573.28,-143.73"/>
<polygon fill="black" stroke="black" points="6569.78,-143.73 6573.28,-153.73 6576.78,-143.73 6569.78,-143.73"/>
</g>
<!-- BtnComponent -->
<g id="node45" class="node">
<title>BtnComponent</title>
<polygon fill="#ffffb3" stroke="black" points="2974.56,-190 2873.44,-190 2873.44,-154 2974.56,-154 2974.56,-190"/>
<text text-anchor="middle" x="2924" y="-167.8" font-family="Times,serif" font-size="14.00">BtnComponent</text>
</g>
<!-- BtnComponent&#45;&gt;SharedModule -->
<g id="edge39" class="edge">
<title>BtnComponent&#45;&gt;SharedModule</title>
<path fill="none" stroke="black" d="M2924,-153.72C2924,-132.68 2924,-101 2924,-101 2924,-101 2409.44,-101 2409.44,-101"/>
<polygon fill="black" stroke="black" points="2409.44,-97.5 2399.44,-101 2409.44,-104.5 2409.44,-97.5"/>
</g>
<!-- TableLightComponent -->
<g id="node46" class="node">
<title>TableLightComponent</title>
<polygon fill="#ffffb3" stroke="black" points="3136.54,-190 2993.46,-190 2993.46,-154 3136.54,-154 3136.54,-190"/>
<text text-anchor="middle" x="3065" y="-167.8" font-family="Times,serif" font-size="14.00">TableLightComponent</text>
</g>
<!-- TableLightComponent&#45;&gt;SharedModule -->
<g id="edge40" class="edge">
<title>TableLightComponent&#45;&gt;SharedModule</title>
<path fill="none" stroke="black" d="M3065,-153.91C3065,-130.87 3065,-94 3065,-94 3065,-94 2409.43,-94 2409.43,-94"/>
<polygon fill="black" stroke="black" points="2409.43,-90.5 2399.43,-94 2409.43,-97.5 2409.43,-90.5"/>
</g>
<!-- TemplateContainerComponent -->
<g id="node50" class="node">
<title>TemplateContainerComponent</title>
<polygon fill="#ffffb3" stroke="black" points="6167.91,-190 5978.09,-190 5978.09,-154 6167.91,-154 6167.91,-190"/>
<text text-anchor="middle" x="6073" y="-167.8" font-family="Times,serif" font-size="14.00">TemplateContainerComponent</text>
</g>
<!-- TemplateContainerComponent&#45;&gt;TemplatesModule -->
<g id="edge45" class="edge">
<title>TemplateContainerComponent&#45;&gt;TemplatesModule</title>
<path fill="none" stroke="black" d="M6073,-153.78C6073,-133.63 6073,-104 6073,-104 6073,-104 5517.99,-104 5517.99,-104"/>
<polygon fill="black" stroke="black" points="5517.99,-100.5 5507.99,-104 5517.99,-107.5 5517.99,-100.5"/>
</g>
<!-- TemplateFullWidthComponent -->
<g id="node51" class="node">
<title>TemplateFullWidthComponent</title>
<polygon fill="#ffffb3" stroke="black" points="6377.76,-190 6186.24,-190 6186.24,-154 6377.76,-154 6377.76,-190"/>
<text text-anchor="middle" x="6282" y="-167.8" font-family="Times,serif" font-size="14.00">TemplateFullWidthComponent</text>
</g>
<!-- TemplateFullWidthComponent&#45;&gt;TemplatesModule -->
<g id="edge46" class="edge">
<title>TemplateFullWidthComponent&#45;&gt;TemplatesModule</title>
<path fill="none" stroke="black" d="M6282,-153.75C6282,-130.98 6282,-95 6282,-95 6282,-95 5517.91,-95 5517.91,-95"/>
<polygon fill="black" stroke="black" points="5517.91,-91.5 5507.91,-95 5517.91,-98.5 5517.91,-91.5"/>
</g>
<!-- Ui2Component -->
<g id="node54" class="node">
<title>Ui2Component</title>
<polygon fill="#ffffb3" stroke="black" points="7056.33,-122 6953.67,-122 6953.67,-86 7056.33,-86 7056.33,-122"/>
<text text-anchor="middle" x="7005" y="-99.8" font-family="Times,serif" font-size="14.00">Ui2Component</text>
</g>
<!-- UiModule -->
<g id="node56" class="node">
<title>UiModule</title>
<polygon fill="#8dd3c7" stroke="black" points="6926.55,-190 6923.55,-194 6902.55,-194 6899.55,-190 6853.45,-190 6853.45,-154 6926.55,-154 6926.55,-190"/>
<text text-anchor="middle" x="6890" y="-167.8" font-family="Times,serif" font-size="14.00">UiModule</text>
</g>
<!-- Ui2Component&#45;&gt;UiModule -->
<g id="edge49" class="edge">
<title>Ui2Component&#45;&gt;UiModule</title>
<path fill="none" stroke="black" d="M7023.97,-122.27C7023.97,-140.56 7023.97,-166 7023.97,-166 7023.97,-166 6936.61,-166 6936.61,-166"/>
<polygon fill="black" stroke="black" points="6936.61,-162.5 6926.61,-166 6936.61,-169.5 6936.61,-162.5"/>
</g>
<!-- UiComponent -->
<g id="node55" class="node">
<title>UiComponent</title>
<polygon fill="#ffffb3" stroke="black" points="6935.83,-122 6840.17,-122 6840.17,-86 6935.83,-86 6935.83,-122"/>
<text text-anchor="middle" x="6888" y="-99.8" font-family="Times,serif" font-size="14.00">UiComponent</text>
</g>
<!-- UiComponent&#45;&gt;UiModule -->
<g id="edge50" class="edge">
<title>UiComponent&#45;&gt;UiModule</title>
<path fill="none" stroke="black" d="M6890,-122.22C6890,-122.22 6890,-143.73 6890,-143.73"/>
<polygon fill="black" stroke="black" points="6886.5,-143.73 6890,-153.73 6893.5,-143.73 6886.5,-143.73"/>
</g>
<!-- Ui2Component  -->
<g id="node57" class="node">
<title>Ui2Component </title>
<polygon fill="#fb8072" stroke="black" points="6941.83,-258 6836.17,-258 6836.17,-222 6941.83,-222 6941.83,-258"/>
<text text-anchor="middle" x="6889" y="-235.8" font-family="Times,serif" font-size="14.00">Ui2Component </text>
</g>
<!-- UiModule&#45;&gt;Ui2Component  -->
<g id="edge51" class="edge">
<title>UiModule&#45;&gt;Ui2Component </title>
<path fill="none" stroke="black" stroke-dasharray="5,2" d="M6890,-190.22C6890,-190.22 6890,-211.73 6890,-211.73"/>
<polygon fill="black" stroke="black" points="6886.5,-211.73 6890,-221.73 6893.5,-211.73 6886.5,-211.73"/>
</g>
<!-- UiComponent  -->
<g id="node58" class="node">
<title>UiComponent </title>
<polygon fill="#fb8072" stroke="black" points="7058.33,-258 6959.67,-258 6959.67,-222 7058.33,-222 7058.33,-258"/>
<text text-anchor="middle" x="7009" y="-235.8" font-family="Times,serif" font-size="14.00">UiComponent </text>
</g>
<!-- UiModule&#45;&gt;UiComponent  -->
<g id="edge52" class="edge">
<title>UiModule&#45;&gt;UiComponent </title>
<path fill="none" stroke="black" stroke-dasharray="5,2" d="M6926.74,-178C6955.9,-178 6991.78,-178 6991.78,-178 6991.78,-178 6991.78,-211.73 6991.78,-211.73"/>
<polygon fill="black" stroke="black" points="6988.28,-211.73 6991.78,-221.73 6995.28,-211.73 6988.28,-211.73"/>
</g>
</g>
</svg>
